<svg xmlns="http://www.w3.org/2000/svg" width="123" height="10" viewBox="0 0 123 10">
  <path fill="#2D2F32" fill-rule="evenodd" d="M3,0 L4,0 L4,10 L3,10 L3,0 Z M0,0 L2,0 L2,10 L0,10 L0,0 Z M6,0 L7,0 L7,10 L6,10 L6,0 Z M11,0 L12,0 L12,10 L11,10 L11,0 Z M14,0 L15,0 L15,10 L14,10 L14,0 Z M19,0 L21,0 L21,10 L19,10 L19,0 Z M22,0 L23,0 L23,10 L22,10 L22,0 Z M24,0 L26,0 L26,10 L24,10 L24,0 Z M28,0 L29,0 L29,10 L28,10 L28,0 Z M33,0 L35,0 L35,10 L33,10 L33,0 Z M39,0 L40,0 L40,10 L39,10 L39,0 Z M41,0 L42,0 L42,10 L41,10 L41,0 Z M44,0 L45,0 L45,10 L44,10 L44,0 Z M49,0 L51,0 L51,10 L49,10 L49,0 Z M53,0 L54,0 L54,10 L53,10 L53,0 Z M55,0 L56,0 L56,10 L55,10 L55,0 Z M58,0 L59,0 L59,10 L58,10 L58,0 Z M60,0 L62,0 L62,10 L60,10 L60,0 Z M66,0 L70,0 L70,10 L66,10 L66,0 Z M71,0 L74,0 L74,10 L71,10 L71,0 Z M75,0 L76,0 L76,10 L75,10 L75,0 Z M77,0 L78,0 L78,10 L77,10 L77,0 Z M82,0 L84,0 L84,10 L82,10 L82,0 Z M85,0 L86,0 L86,10 L85,10 L85,0 Z M88,0 L90,0 L90,10 L88,10 L88,0 Z M94,0 L95,0 L95,10 L94,10 L94,0 Z M96,0 L97,0 L97,10 L96,10 L96,0 Z M99,0 L100,0 L100,10 L99,10 L99,0 Z M102,0 L103,0 L103,10 L102,10 L102,0 Z M105,0 L109,0 L109,10 L105,10 L105,0 Z M110,0 L112,0 L112,10 L110,10 L110,0 Z M115,0 L118,0 L118,10 L115,10 L115,0 Z M119,0 L120,0 L120,10 L119,10 L119,0 Z M121,0 L123,0 L123,10 L121,10 L121,0 Z"/>
</svg>
