<svg xmlns="http://www.w3.org/2000/svg" width="123" height="30" viewBox="0 0 123 30">
  <path fill="#2D2F32" fill-rule="evenodd" d="M3,0 L4,0 L4,30 L3,30 L3,0 Z M0,0 L2,0 L2,30 L0,30 L0,0 Z M6,0 L7,0 L7,30 L6,30 L6,0 Z M11,0 L12,0 L12,30 L11,30 L11,0 Z M14,0 L15,0 L15,30 L14,30 L14,0 Z M19,0 L21,0 L21,30 L19,30 L19,0 Z M22,0 L23,0 L23,30 L22,30 L22,0 Z M24,0 L26,0 L26,30 L24,30 L24,0 Z M28,0 L29,0 L29,30 L28,30 L28,0 Z M33,0 L35,0 L35,30 L33,30 L33,0 Z M39,0 L40,0 L40,30 L39,30 L39,0 Z M41,0 L42,0 L42,30 L41,30 L41,0 Z M44,0 L45,0 L45,30 L44,30 L44,0 Z M49,0 L51,0 L51,30 L49,30 L49,0 Z M53,0 L54,0 L54,30 L53,30 L53,0 Z M55,0 L56,0 L56,30 L55,30 L55,0 Z M58,0 L59,0 L59,30 L58,30 L58,0 Z M60,0 L62,0 L62,30 L60,30 L60,0 Z M66,0 L70,0 L70,30 L66,30 L66,0 Z M71,0 L74,0 L74,30 L71,30 L71,0 Z M75,0 L76,0 L76,30 L75,30 L75,0 Z M77,0 L78,0 L78,30 L77,30 L77,0 Z M82,0 L84,0 L84,30 L82,30 L82,0 Z M85,0 L86,0 L86,30 L85,30 L85,0 Z M88,0 L90,0 L90,30 L88,30 L88,0 Z M94,0 L95,0 L95,30 L94,30 L94,0 Z M96,0 L97,0 L97,30 L96,30 L96,0 Z M99,0 L100,0 L100,30 L99,30 L99,0 Z M102,0 L103,0 L103,30 L102,30 L102,0 Z M105,0 L109,0 L109,30 L105,30 L105,0 Z M110,0 L112,0 L112,30 L110,30 L110,0 Z M115,0 L118,0 L118,30 L115,30 L115,0 Z M119,0 L120,0 L120,30 L119,30 L119,0 Z M121,0 L123,0 L123,30 L121,30 L121,0 Z"/>
</svg>
