<svg xmlns="http://www.w3.org/2000/svg" width="20" height="20" viewBox="0 0 20 20">
  <path fill="#9EA1A9" d="M9,14.8999819 C7.04086962,14.5022994 5.49770059,12.9591304 5.10001812,11 L4,11 L4,9 L5.10001812,9 C5.49770059,7.04086962 7.04086962,5.49770059 9,5.10001812 L9,4 L11,4 L11,5.10001812 C12.9591304,5.49770059 14.5022994,7.04086962 14.8999819,9 L16,9 L16,11 L14.8999819,11 C14.5022994,12.9591304 12.9591304,14.5022994 11,14.8999819 L11,16 L9,16 L9,14.8999819 Z M10,13 C11.6568542,13 13,11.6568542 13,10 C13,8.34314575 11.6568542,7 10,7 C8.34314575,7 7,8.34314575 7,10 C7,11.6568542 8.34314575,13 10,13 Z M9,9 L11,9 L11,11 L9,11 L9,9 Z"/>
</svg>
