<?xml version="1.0" encoding="UTF-8" standalone="no"?>
<svg width="271px" height="21px" viewBox="0 0 271 21" version="1.1" xmlns="http://www.w3.org/2000/svg" xmlns:xlink="http://www.w3.org/1999/xlink">
    <title>stroke</title>
    <defs></defs>
    <g id="Page-1" stroke="none" stroke-width="1" fill="none" fill-rule="evenodd">
        <path d="M4.41364918,18.8545784 C14.2826307,16.7764725 51.8798586,11.1586011 84.6497217,8.28226289 C117.419585,5.40592463 127.940675,3.93912206 156.94177,2.5859163 C185.942864,1.23271055 205.572266,0.843546576 223.98665,0.530835385 C242.401035,0.218124195 256.118934,0.624671216 262.29423,1.79683161 C268.469527,2.968992 269.788344,3.94637094 270.258609,7.0684236 C270.728873,10.1904763 269.409431,12.2412438 268.469524,13.2430807 C267.529617,14.2449175 265.649916,15.0525191 261.70194,15.1888884 C257.753963,15.3252576 255.776752,14.4636712 237.692789,13.4887232 C219.608827,12.5137753 220.868118,12.7433059 204.656801,12.1134538 C188.445484,11.4836017 186.767886,11.8435175 167.232569,11.7511591 C147.697251,11.6588006 152.753992,11.3065397 127.940675,12.1134542 C103.127359,12.9203687 100.327798,13.3168214 83.0501162,14.4887231 C65.7724347,15.6606249 63.6048863,15.9602775 46.8045946,17.3431495 C30.004303,18.7260216 17.7700464,20.6899988 10.9634496,20.9326847 C4.15685275,21.1753707 -5.45533233,20.9326843 4.41364918,18.8545784 Z" id="Path-1" fill="#19C1F3"></path>
    </g>
</svg>
